<svg width="34" height="32" fill="none" xmlns="http://www.w3.org/2000/svg"><path fill-rule="evenodd" clip-rule="evenodd" d="M21.475.027c0 .016-.133.026-.345.026-.213 0-.346.01-.346.027 0 .015-.08.026-.186.026s-.186.012-.186.027-.08.026-.186.026-.186.012-.186.027-.08.027-.186.027c-.107 0-.186.011-.186.026s-.06.027-.133.027c-.073 0-.133.012-.133.026 0 .015-.06.027-.133.027-.073 0-.133.012-.133.027 0 .014-.06.026-.133.026-.073 0-.133.012-.133.027 0 .014-.06.026-.133.026-.072 0-.132.012-.132.027 0 .014-.06.026-.133.026-.073 0-.133.012-.133.027s-.048.027-.106.027c-.059 0-.107.012-.107.026 0 .015-.048.027-.106.027-.058 0-.106.012-.106.026 0 .015-.036.027-.08.027-.044 0-.08.012-.08.026 0 .015-.048.027-.106.027-.059 0-.107.012-.107.027 0 .014-.047.026-.106.026-.058 0-.106.012-.106.027 0 .014-.036.026-.08.026-.044 0-.08.012-.08.027s-.047.026-.106.026c-.058 0-.106.012-.106.027s-.036.027-.08.027c-.044 0-.08.012-.08.026 0 .015-.035.027-.08.027-.043 0-.08.012-.08.026 0 .015-.035.027-.079.027s-.08.012-.08.027c0 .014-.036.026-.08.026-.043 0-.08.012-.08.027 0 .014-.035.026-.079.026s-.08.012-.08.027c0 .014-.035.026-.08.026-.043 0-.079.012-.079.027s-.036.027-.08.027c-.044 0-.08.012-.08.026 0 .015-.035.027-.08.027-.043 0-.079.012-.079.026 0 .015-.036.027-.08.027-.044 0-.08.012-.08.026 0 .015-.023.027-.053.027-.029 0-.053.012-.053.027 0 .014-.036.026-.08.026-.043 0-.08.012-.08.027 0 .014-.035.026-.079.026s-.08.012-.08.027-.024.027-.053.027c-.029 0-.053.011-.053.026s-.036.027-.08.027c-.044 0-.08.012-.08.026 0 .015-.023.027-.053.027-.029 0-.053.012-.053.026 0 .015-.036.027-.08.027-.043 0-.08.012-.08.027 0 .014-.023.026-.052.026-.03 0-.053.012-.053.027 0 .014-.036.026-.08.026-.044 0-.08.012-.08.027 0 .014-.024.026-.053.026-.03 0-.053.012-.053.027s-.024.027-.053.027c-.03 0-.054.012-.054.026 0 .015-.036.027-.08.027-.043 0-.08.012-.08.026 0 .015-.023.027-.052.027-.03 0-.053.012-.053.027 0 .014-.024.026-.054.026-.029 0-.053.012-.053.027 0 .014-.024.026-.053.026-.03 0-.053.012-.053.027 0 .014-.024.026-.053.026-.03 0-.053.012-.053.027s-.036.027-.08.027c-.044 0-.08.012-.08.026 0 .015-.024.027-.053.027-.03 0-.053.012-.053.026 0 .015-.024.027-.053.027-.03 0-.053.012-.053.026 0 .015-.024.027-.054.027-.029 0-.053.012-.053.027 0 .014-.024.026-.053.026-.03 0-.053.012-.053.027 0 .014-.024.026-.053.026-.03 0-.053.012-.053.027s-.024.026-.053.026c-.03 0-.054.012-.054.027s-.024.027-.053.027c-.03 0-.053.012-.053.026 0 .015-.024.027-.053.027-.03 0-.053.012-.053.026 0 .015-.024.027-.054.027-.029 0-.053.012-.053.027 0 .014-.024.026-.053.026-.029 0-.053.012-.053.027 0 .014-.024.026-.053.026-.03 0-.053.012-.053.027 0 .014-.024.026-.053.026-.03 0-.054.012-.054.027s-.024.027-.053.027c-.029 0-.053.012-.053.026 0 .015-.024.027-.053.027-.03 0-.053.012-.053.026 0 .015-.021.027-.047.027-.027 0-.065.024-.086.053-.021.03-.06.053-.086.053-.026 0-.047.012-.047.027 0 .014-.024.026-.053.026-.03 0-.053.012-.053.027s-.024.027-.053.027c-.03 0-.054.011-.054.026s-.02.027-.047.027c-.026 0-.064.024-.085.053-.022.03-.06.053-.086.053-.026 0-.047.012-.047.027 0 .014-.024.026-.053.026-.03 0-.054.012-.054.027 0 .014-.021.026-.047.026s-.064.024-.086.053c-.02.03-.06.054-.085.054-.026 0-.047.012-.047.026 0 .015-.024.027-.054.027-.029 0-.053.012-.053.026 0 .015-.021.027-.047.027s-.065.024-.086.053c-.02.03-.06.053-.085.053-.026 0-.048.012-.048.027 0 .014-.02.026-.047.026-.026 0-.064.024-.085.054-.022.029-.06.053-.086.053-.026 0-.047.012-.047.026 0 .015-.022.027-.048.027-.026 0-.064.024-.085.053-.021.03-.057.053-.08.053s-.059.024-.08.053c-.02.03-.057.053-.08.053-.022 0-.058.024-.08.054-.02.029-.056.053-.079.053s-.059.024-.08.053c-.02.03-.06.053-.085.053-.026 0-.048.012-.048.027 0 .014-.02.026-.047.026-.026 0-.064.024-.085.053-.021.03-.057.054-.08.054s-.059.024-.08.053c-.021.029-.055.053-.075.053-.02 0-.07.036-.11.08-.042.043-.092.08-.112.08-.02 0-.054.023-.075.053-.021.029-.057.053-.08.053-.022 0-.058.024-.08.053-.02.03-.054.053-.074.053-.02 0-.07.036-.111.08-.041.044-.091.08-.112.08-.02 0-.053.023-.075.053-.02.029-.054.053-.074.053-.02 0-.07.036-.112.08-.04.043-.088.08-.106.08-.017 0-.065.035-.106.079-.041.044-.089.08-.107.08-.017 0-.065.036-.106.08-.04.043-.089.08-.106.08-.018 0-.066.035-.106.079-.041.044-.089.08-.106.08s-.077.047-.134.106c-.056.058-.116.106-.133.106-.016 0-.076.048-.132.107-.057.058-.116.106-.133.106a.61.61 0 00-.16.133.62.62 0 01-.159.133c-.016 0-.112.083-.213.186-.1.102-.197.186-.213.186-.016 0-.1.072-.186.16a.872.872 0 01-.184.159c-.037 0-1.968 1.931-1.968 1.968 0 .015-.084.11-.186.211-.103.101-.186.197-.186.213a.62.62 0 01-.133.16.61.61 0 00-.133.159c0 .017-.048.076-.107.133-.058.056-.106.115-.106.132s-.048.077-.106.133c-.059.057-.107.117-.107.134s-.035.065-.08.106c-.043.04-.079.088-.079.106 0 .017-.036.065-.08.106-.044.041-.08.089-.08.107 0 .017-.035.065-.08.106-.043.04-.079.09-.079.11 0 .021-.024.055-.053.076-.03.02-.053.057-.053.08 0 .022-.024.058-.053.08-.03.02-.054.056-.054.079s-.023.059-.053.08c-.029.02-.053.057-.053.08 0 .022-.024.058-.053.08-.03.02-.053.056-.053.079s-.024.059-.053.08c-.03.02-.053.06-.053.085 0 .026-.012.048-.027.048s-.027.02-.027.047c0 .026-.024.064-.053.085-.029.022-.053.06-.053.086 0 .026-.012.047-.027.047-.014 0-.026.024-.026.053 0 .03-.012.054-.027.054-.014 0-.026.021-.026.047s-.024.065-.053.086c-.03.02-.054.06-.054.085 0 .026-.012.047-.026.047-.015 0-.027.024-.027.054 0 .029-.012.053-.026.053-.015 0-.027.024-.027.053 0 .03-.012.053-.026.053-.015 0-.027.024-.027.053 0 .03-.012.053-.027.053-.014 0-.026.024-.026.054 0 .029-.012.053-.027.053-.014 0-.026.024-.026.053 0 .03-.012.053-.027.053s-.027.024-.027.053c0 .03-.011.053-.026.053s-.027.024-.027.053c0 .03-.012.054-.026.054-.015 0-.027.024-.027.053 0 .03-.012.053-.026.053-.015 0-.027.024-.027.053 0 .03-.012.053-.027.053-.014 0-.026.036-.026.08 0 .044-.012.08-.027.08-.014 0-.026.024-.026.053 0 .03-.012.053-.027.053-.014 0-.026.036-.026.08 0 .044-.012.08-.027.08s-.027.024-.027.053c0 .029-.012.053-.026.053-.015 0-.027.036-.027.08 0 .043-.012.08-.026.08-.015 0-.027.035-.027.079s-.012.08-.026.08c-.015 0-.027.036-.027.08 0 .043-.012.08-.027.08-.014 0-.026.047-.026.106 0 .058-.012.106-.027.106-.014 0-.026.036-.026.08 0 .043-.012.08-.027.08s-.027.06-.027.132c0 .073-.011.133-.026.133s-.027.071-.027.16c0 .088-.011.16-.026.16s-.027.079-.027.185-.011.186-.026.186c-.017 0-.027.186-.027.505 0 .32.01.505.027.505.015 0 .026.08.026.186 0 .107.012.186.027.186.014 0 .026.048.026.107 0 .058.012.106.027.106s.026.048.026.106c0 .059.012.106.027.106s.027.024.027.054c0 .029.012.053.026.053.015 0 .027.036.027.08 0 .043.012.08.026.08.015 0 .027.023.027.052 0 .03.012.054.027.054.014 0 .026.023.026.053 0 .029.012.053.027.053.014 0 .026.024.026.053 0 .03.012.053.027.053.014 0 .026.021.026.047s.024.065.054.086c.029.021.053.057.053.08s.024.058.053.08c.03.02.053.054.053.075 0 .02.036.07.08.11.044.042.08.088.08.105 0 .038.388.427.427.427.016 0 .063.036.104.08.041.044.089.08.106.08.018 0 .066.036.107.08.04.043.093.08.117.08.023 0 .042.011.042.026 0 .014.021.026.047.026s.065.024.086.053c.021.03.06.054.086.054.026 0 .047.011.047.026s.024.027.053.027c.03 0 .053.012.053.026 0 .015.024.027.053.027.03 0 .054.012.054.026 0 .015.023.027.053.027.029 0 .053.012.053.027 0 .014.024.026.053.026.03 0 .053.012.053.027 0 .014.036.026.08.026.044 0 .08.012.08.027s.036.027.08.027c.043 0 .08.012.08.026 0 .015.047.027.105.027.059 0 .107.012.107.026 0 .015.06.027.133.027.073 0 .133.012.133.026 0 .017.186.027.505.027.318 0 .504-.01.504-.027 0-.014.06-.026.133-.026.073 0 .133-.012.133-.027 0-.014.06-.026.133-.026.073 0 .133-.012.133-.027 0-.014.048-.026.106-.026.059 0 .107-.012.107-.027s.048-.027.106-.027c.058 0 .106-.012.106-.026 0-.015.036-.027.08-.027.044 0 .08-.012.08-.026 0-.015.036-.027.08-.027.043 0 .08-.012.08-.027 0-.014.035-.026.079-.026s.08-.012.08-.027c0-.014.036-.026.08-.026.043 0 .08-.012.08-.027s.023-.026.052-.026c.03 0 .053-.012.053-.027s.036-.027.08-.027c.044 0 .08-.012.08-.026 0-.015.024-.027.053-.027.03 0 .053-.012.053-.026 0-.015.024-.027.053-.027.03 0 .054-.012.054-.027 0-.014.035-.026.08-.026.043 0 .08-.012.08-.027 0-.014.023-.026.052-.026.03 0 .053-.012.053-.027 0-.014.024-.026.054-.026.029 0 .053-.012.053-.027s.024-.027.053-.027c.03 0 .053-.012.053-.026 0-.015.024-.027.053-.027.03 0 .053-.012.053-.026 0-.015.024-.027.053-.027.03 0 .054-.012.054-.026 0-.015.024-.027.053-.027.029 0 .053-.012.053-.027 0-.014.024-.026.053-.026.03 0 .053-.012.053-.027 0-.014.024-.026.053-.026.03 0 .054-.012.054-.027 0-.014.023-.026.053-.026.029 0 .053-.012.053-.027s.021-.027.047-.027.065-.024.086-.053c.02-.029.06-.053.085-.053.026 0 .048-.012.048-.026 0-.015.024-.027.053-.027.029 0 .053-.012.053-.027 0-.014.021-.026.047-.026s.065-.024.086-.053c.02-.03.06-.054.085-.054.026 0 .048-.012.048-.026 0-.015.021-.027.047-.027s.065-.024.086-.053c.02-.03.06-.053.085-.053.026 0 .048-.012.048-.027 0-.014.02-.026.047-.026.026 0 .064-.024.085-.053.021-.03.06-.053.086-.053.026 0 .047-.012.047-.027s.022-.027.048-.027c.026 0 .064-.024.085-.053.021-.03.06-.053.086-.053.026 0 .047-.012.047-.027 0-.014.021-.026.047-.026s.065-.024.086-.053c.021-.03.057-.053.08-.053.022 0 .058-.024.08-.054.02-.029.059-.053.085-.053.026 0 .047-.012.047-.026 0-.015.022-.027.048-.027.026 0 .064-.024.085-.053.021-.03.057-.053.08-.053s.059-.024.08-.053c.02-.03.057-.054.08-.054.022 0 .058-.023.08-.053.02-.029.056-.053.079-.053s.059-.024.08-.053c.02-.03.057-.053.08-.053.022 0 .058-.024.08-.053.02-.03.056-.053.079-.053s.058-.024.08-.054c.02-.029.056-.053.08-.053.022 0 .058-.024.079-.053.021-.03.057-.053.08-.053s.058-.024.08-.053c.02-.03.056-.053.08-.053.022 0 .058-.024.079-.054.021-.029.055-.053.075-.053.02 0 .07-.036.111-.08.041-.043.091-.08.111-.08.02 0 .054-.023.075-.052.021-.03.057-.053.08-.053s.058-.024.08-.054c.02-.029.054-.053.075-.053.02 0 .07-.036.11-.08.041-.043.091-.08.112-.08.02 0 .054-.023.075-.052.02-.03.057-.054.08-.054.022 0 .058-.024.08-.053.02-.029.056-.053.079-.053s.059-.024.08-.053c.02-.03.054-.053.075-.053.02 0 .07-.036.11-.08.042-.044.092-.08.112-.08.02 0 .054-.024.075-.053.02-.03.057-.053.08-.053.022 0 .058-.024.08-.053.02-.03.056-.053.079-.053s.059-.024.08-.053c.02-.03.054-.054.075-.054.02 0 .07-.036.11-.08.042-.043.092-.08.112-.08.02 0 .054-.023.075-.052.02-.03.055-.053.075-.053.02 0 .07-.036.11-.08.042-.044.092-.08.112-.08.02 0 .054-.024.075-.053.02-.03.055-.053.075-.053.02 0 .07-.036.11-.08.042-.044.092-.08.112-.08.02 0 .054-.024.075-.053.02-.029.057-.053.08-.053.022 0 .058-.024.08-.053.02-.03.056-.053.08-.053.022 0 .058-.024.079-.053.02-.03.055-.054.075-.054.02 0 .07-.035.11-.08.042-.043.092-.08.112-.08.02 0 .054-.023.075-.052.021-.03.057-.053.08-.053.022 0 .058-.024.08-.053.02-.03.056-.054.08-.054.022 0 .058-.024.079-.053.02-.03.055-.053.075-.053.02 0 .07-.036.11-.08.042-.044.092-.08.112-.08.02 0 .054-.023.075-.053.021-.029.057-.053.08-.053.022 0 .058-.024.08-.053.02-.03.056-.053.08-.053.022 0 .058-.024.079-.053.02-.03.057-.053.08-.053.022 0 .058-.024.08-.054.02-.029.056-.053.08-.053.022 0 .058-.024.079-.053.02-.03.057-.053.08-.053.022 0 .058-.024.08-.053.02-.03.056-.053.079-.053s.059-.024.08-.054c.02-.029.057-.053.08-.053.022 0 .058-.024.08-.053.02-.029.056-.053.079-.053s.059-.024.08-.053c.02-.03.057-.053.08-.053.022 0 .058-.024.08-.053.02-.03.056-.054.079-.054s.058-.024.08-.053c.02-.029.057-.053.08-.053.022 0 .058-.024.08-.053.02-.03.059-.053.085-.053.026 0 .047-.012.047-.027 0-.014.021-.026.047-.026s.065-.024.086-.053c.02-.03.057-.054.08-.054.022 0 .058-.024.08-.053.02-.03.059-.053.085-.053.026 0 .047-.012.047-.027 0-.014.021-.026.048-.026.026 0 .064-.024.085-.053.021-.03.06-.054.086-.054.026 0 .047-.011.047-.026s.021-.027.047-.027.065-.024.086-.053c.021-.029.06-.053.085-.053.026 0 .048-.012.048-.027 0-.014.021-.026.047-.026s.065-.024.086-.053c.02-.03.057-.053.08-.053.022 0 .058-.024.08-.054.02-.029.059-.053.085-.053.026 0 .047-.012.047-.026 0-.015.021-.027.047-.027s.065-.024.086-.053c.021-.03.06-.053.085-.053.027 0 .048-.012.048-.027 0-.014.024-.026.053-.026.03 0 .053-.012.053-.027 0-.014.021-.026.047-.026s.065-.024.086-.054c.021-.029.06-.053.086-.053.026 0 .047-.012.047-.026 0-.015.024-.027.053-.027.03 0 .053-.012.053-.026 0-.015.021-.027.047-.027s.065-.024.086-.053c.021-.03.06-.053.086-.053.026 0 .047-.012.047-.027s.024-.027.053-.027c.03 0 .053-.011.053-.026s.024-.027.053-.027c.03 0 .054-.012.054-.026 0-.015.024-.027.053-.027.029 0 .053-.012.053-.027 0-.014.024-.026.053-.026.03 0 .053-.012.053-.027 0-.014.021-.026.047-.026.027 0 .065-.024.086-.053.021-.03.06-.053.086-.053.026 0 .047-.013.047-.027 0-.015.024-.027.053-.027.03 0 .053-.012.053-.026 0-.015.024-.027.053-.027.03 0 .054-.012.054-.026 0-.015.024-.027.053-.027.029 0 .053-.012.053-.027 0-.014.024-.026.053-.026.03 0 .053-.012.053-.027 0-.014.036-.026.08-.026.044 0 .08-.012.08-.027 0-.014.024-.026.053-.026.03 0 .053-.012.053-.027s.024-.027.053-.027c.03 0 .053-.012.053-.026 0-.015.024-.027.053-.027.03 0 .054-.012.054-.026 0-.015.024-.027.053-.027.03 0 .053-.012.053-.026 0-.015.024-.027.053-.027.03 0 .053-.012.053-.027 0-.014.036-.026.08-.026.044 0 .08-.012.08-.027 0-.014.024-.026.053-.026.03 0 .053-.012.053-.027s.024-.027.053-.027c.03 0 .053-.011.053-.026s.036-.027.08-.027c.044 0 .08-.012.08-.026 0-.015.024-.027.053-.027.03 0 .053-.012.053-.026 0-.015.036-.027.08-.027.044 0 .08-.012.08-.027 0-.014.024-.026.053-.026.029 0 .053-.012.053-.027 0-.014.036-.026.08-.026.043 0 .08-.012.08-.027 0-.014.035-.027.08-.027.043 0 .079-.011.079-.026s.036-.027.08-.027c.043 0 .08-.012.08-.026 0-.015.035-.027.08-.027.043 0 .079-.012.079-.026 0-.015.036-.027.08-.027.043 0 .08-.012.08-.027 0-.014.047-.026.106-.026.058 0 .106-.012.106-.027 0-.014.048-.026.106-.026.059 0 .107-.012.107-.027 0-.014.047-.026.106-.026.058 0 .106-.012.106-.027s.048-.027.107-.027c.058 0 .106-.012.106-.026 0-.015.07-.027.16-.027.088 0 .159-.012.159-.026 0-.017.124-.027.319-.027s.319-.01.319-.026.088-.027.212-.027.213.011.213.027c0 .015.106.026.266.026.16 0 .265.01.265.027 0 .014.06.026.133.026.073 0 .133.012.133.027 0 .014.036.026.08.026.044 0 .08.012.08.027s.035.027.08.027c.043 0 .08.012.08.026 0 .015.023.027.052.027.03 0 .053.012.053.026 0 .015.036.027.08.027.044 0 .08.012.08.026 0 .015.021.027.047.027s.065.024.086.053c.02.03.06.053.085.053.026 0 .048.012.048.027s.019.027.042.027c.024 0 .076.035.117.08.041.043.088.079.104.079.039 0 .48.442.48.48 0 .017.037.064.08.105.044.04.08.093.08.117 0 .023.012.042.027.042.014 0 .026.022.026.047 0 .027.024.065.054.086.029.021.053.06.053.086 0 .026.012.047.026.047.015 0 .027.024.027.053 0 .03.012.053.027.053.014 0 .026.024.026.053 0 .03.012.054.027.054.014 0 .026.02.026.047 0 .026.024.064.053.085a.145.145 0 01.054.113c0 .04.012.074.026.074.015 0 .027.023.027.053 0 .029.012.053.026.053.015 0 .027.036.027.08 0 .043.012.08.027.08.014 0 .026.035.026.079s.012.08.027.08c.014 0 .026.036.026.08 0 .043.012.08.027.08.014 0 .026.035.026.079s.012.08.027.08.027.047.027.106c0 .058.012.106.026.106.015 0 .027.048.027.107 0 .058.012.106.026.106.015 0 .027.08.027.186s.011.186.026.186c.017 0 .027.275.027.77 0 .497-.01.772-.027.772-.015 0-.026.08-.026.186s-.012.186-.027.186c-.014 0-.026.06-.026.133 0 .073-.012.132-.027.132-.014 0-.026.06-.026.133 0 .073-.012.133-.027.133s-.027.048-.027.107c0 .058-.012.106-.026.106-.015 0-.027.048-.027.106 0 .059-.012.107-.026.107-.015 0-.027.035-.027.08 0 .043-.012.079-.026.079-.015 0-.027.048-.027.106 0 .059-.012.107-.027.107-.014 0-.026.035-.026.08 0 .043-.012.079-.027.079-.014 0-.026.024-.026.053 0 .03-.012.053-.027.053s-.027.036-.027.08c0 .044-.011.08-.026.08s-.027.024-.027.053c0 .03-.012.053-.026.053-.015 0-.027.036-.027.08 0 .044-.012.08-.026.08-.015 0-.027.036-.027.08 0 .043-.012.08-.027.08-.014 0-.026.023-.026.052 0 .03-.012.053-.027.053-.014 0-.026.024-.026.053 0 .03-.012.054-.027.054s-.027.024-.027.053c0 .03-.012.053-.026.053-.015 0-.027.036-.027.08 0 .044-.012.08-.026.08-.015 0-.027.023-.027.053 0 .029-.012.053-.026.053-.015 0-.027.024-.027.053 0 .03-.012.053-.027.053-.014 0-.026.024-.026.053 0 .03-.012.053-.027.053-.014 0-.026.024-.026.054 0 .029-.012.053-.027.053-.014 0-.026.024-.026.053 0 .03-.012.053-.027.053s-.027.024-.027.053c0 .03-.012.053-.026.053-.015 0-.027.022-.027.048 0 .026-.024.064-.053.085-.03.021-.053.06-.053.086 0 .026-.012.047-.027.047-.014 0-.026.024-.026.053 0 .03-.012.053-.027.053-.014 0-.026.024-.026.054 0 .029-.012.053-.027.053s-.026.021-.026.047-.024.065-.054.086c-.029.02-.053.06-.053.085 0 .026-.012.047-.026.047-.015 0-.027.022-.027.048 0 .026-.024.064-.053.085-.03.021-.053.06-.053.086 0 .026-.012.047-.027.047-.014 0-.026.022-.026.048 0 .026-.024.064-.054.085-.029.021-.053.057-.053.08s-.024.059-.053.08c-.03.02-.053.057-.053.08 0 .022-.024.058-.053.08-.03.02-.053.056-.053.079s-.024.059-.054.08c-.029.02-.053.057-.053.08 0 .022-.024.058-.053.08-.03.02-.053.054-.053.074 0 .02-.036.07-.08.111-.044.041-.08.091-.08.111 0 .02-.023.054-.053.075-.029.021-.053.055-.053.075 0 .02-.036.07-.08.111-.043.041-.08.089-.08.107 0 .017-.035.065-.079.106-.044.04-.08.089-.08.106 0 .018-.036.066-.08.107-.043.04-.08.088-.08.105s-.047.078-.105.134c-.059.056-.107.116-.107.132a.61.61 0 01-.133.16.614.614 0 00-.133.16c0 .016-.06.088-.133.159a.617.617 0 00-.132.16c0 .016-.072.1-.16.186a.852.852 0 00-.16.185c0 .016-.107.136-.238.266-.132.13-.24.25-.24.265 0 .036-1.931 1.968-1.967 1.968-.016 0-.135.107-.265.24-.13.13-.25.238-.266.238-.016 0-.112.084-.213.186-.1.103-.196.186-.212.186-.017 0-.1.072-.186.16-.087.088-.17.16-.187.16a.617.617 0 00-.159.132.613.613 0 01-.16.133.615.615 0 00-.159.133.61.61 0 01-.16.133c-.016 0-.076.048-.132.106-.056.059-.116.107-.134.107-.017 0-.064.035-.105.08-.041.043-.089.079-.106.079s-.077.048-.134.106c-.056.059-.118.107-.138.107-.02 0-.053.024-.074.053-.021.029-.055.053-.075.053-.02 0-.082.048-.138.106-.056.059-.118.107-.138.107-.02 0-.053.023-.075.053-.02.029-.054.053-.074.053-.02 0-.07.036-.111.08-.041.043-.09.08-.107.08s-.065.035-.106.079c-.041.044-.091.08-.111.08-.02 0-.054.024-.075.053-.021.03-.055.053-.075.053-.02 0-.07.036-.111.08-.041.044-.091.08-.111.08-.02 0-.054.023-.075.053-.021.029-.057.053-.08.053s-.059.024-.08.053c-.02.03-.057.053-.08.053-.022 0-.058.024-.08.053-.02.03-.056.053-.079.053s-.059.024-.08.054c-.02.029-.06.053-.085.053-.026 0-.048.012-.048.026 0 .015-.02.027-.047.027-.026 0-.064.024-.085.053-.021.03-.057.053-.08.053s-.059.024-.08.053c-.021.03-.057.054-.08.054-.022 0-.058.024-.08.053-.02.029-.059.053-.085.053-.026 0-.047.012-.047.026 0 .015-.022.027-.048.027-.026 0-.064.024-.085.053-.021.03-.057.053-.08.053s-.059.024-.08.053c-.02.03-.06.054-.085.054-.026 0-.047.012-.047.026 0 .015-.024.027-.054.027-.029 0-.053.012-.053.026 0 .015-.021.027-.047.027s-.065.024-.086.053c-.02.03-.06.053-.085.053-.026 0-.048.012-.048.027s-.024.026-.053.026c-.029 0-.053.012-.053.027s-.024.027-.053.027c-.03 0-.053.012-.053.026 0 .015-.021.027-.047.027-.027 0-.065.024-.086.053-.021.03-.06.053-.086.053-.026 0-.047.012-.047.027 0 .014-.024.026-.053.026-.03 0-.053.012-.053.027 0 .014-.024.026-.053.026-.03 0-.054.012-.054.027s-.024.027-.053.027c-.029 0-.053.011-.053.026s-.024.027-.053.027c-.03 0-.053.012-.053.026 0 .015-.024.027-.053.027-.03 0-.054.012-.054.026 0 .015-.023.027-.053.027-.029 0-.053.012-.053.027 0 .014-.024.026-.053.026-.03 0-.053.012-.053.027 0 .014-.024.026-.053.026-.03 0-.053.012-.053.027s-.036.027-.08.027c-.044 0-.08.011-.08.026s-.024.027-.053.027c-.03 0-.053.012-.053.026 0 .015-.036.027-.08.027-.044 0-.08.012-.08.026 0 .015-.024.027-.053.027-.03 0-.053.012-.053.027 0 .014-.036.026-.08.026-.044 0-.08.012-.08.027 0 .014-.024.026-.053.026-.029 0-.053.012-.053.027 0 .014-.048.026-.106.026-.059 0-.107.012-.107.027s-.035.027-.08.027c-.043 0-.079.012-.079.026 0 .015-.036.027-.08.027-.044 0-.08.012-.08.026 0 .015-.047.027-.106.027-.058 0-.106.012-.106.026 0 .015-.07.027-.16.027-.088 0-.159.012-.159.027s-.098.026-.24.026c-.14 0-.238-.01-.238-.026 0-.015-.048-.027-.107-.027-.058 0-.106-.012-.106-.026 0-.015-.024-.027-.053-.027-.03 0-.053-.012-.053-.027 0-.014-.019-.026-.04-.026-.054 0-.28-.226-.28-.279 0-.022-.011-.04-.026-.04-.014 0-.026-.024-.026-.053 0-.03-.012-.053-.027-.053s-.027-.071-.027-.16c0-.089-.011-.16-.026-.16s-.027-.047-.027-.106c0-.058.012-.106.027-.106s.026-.071.026-.16c0-.088.012-.159.027-.159s.027-.036.027-.08c0-.044.011-.08.026-.08s.027-.047.027-.106c0-.058.012-.106.026-.106.015 0 .027-.024.027-.053 0-.03.012-.053.027-.053.014 0 .026-.024.026-.054 0-.029.012-.053.027-.053.014 0 .026-.024.026-.053 0-.03.012-.053.027-.053.014 0 .026-.024.026-.053 0-.03.012-.053.027-.053.014 0 .027-.022.027-.048 0-.026.023-.064.053-.085.029-.021.053-.057.053-.08s.024-.059.053-.08c.03-.02.053-.057.053-.08 0-.022.024-.058.053-.08.03-.02.053-.056.053-.079s.024-.059.054-.08c.029-.02.053-.054.053-.074 0-.02.048-.082.106-.138.059-.056.106-.116.106-.133s.048-.077.107-.133c.058-.056.106-.116.106-.132 0-.017.072-.1.16-.187a.856.856 0 00.159-.185c0-.016.132-.16.292-.32.161-.16.293-.303.293-.319 0-.015.275-.302.611-.638.336-.336.611-.623.611-.638 0-.015.168-.194.372-.398.205-.204.372-.384.372-.4 0-.016.072-.099.16-.185.088-.086.16-.17.16-.187 0-.016.047-.076.106-.132.058-.056.106-.116.106-.133s.048-.077.106-.133c.059-.056.107-.118.107-.138 0-.02.023-.053.053-.074.029-.021.053-.057.053-.08s.024-.059.053-.08c.03-.021.053-.057.053-.08 0-.022.024-.058.053-.08.03-.02.054-.059.054-.085 0-.026.012-.047.026-.047.015 0 .027-.024.027-.053 0-.03.012-.053.026-.053.015 0 .027-.024.027-.054 0-.029.012-.053.026-.053.015 0 .027-.024.027-.053 0-.03.012-.053.027-.053.014 0 .026-.036.026-.08 0-.044.012-.08.027-.08.014 0 .026-.024.026-.053 0-.029.012-.053.027-.053.014 0 .026-.048.026-.106 0-.059.012-.107.027-.107.016 0 .027-.106.027-.265 0-.16-.011-.266-.027-.266-.014 0-.026-.048-.026-.106 0-.059-.012-.107-.027-.107s-.027-.021-.027-.047-.024-.065-.053-.086c-.029-.02-.053-.053-.053-.072 0-.045-.387-.433-.432-.433-.02 0-.052-.024-.073-.053-.021-.029-.06-.053-.086-.053-.026 0-.047-.012-.047-.026 0-.015-.021-.027-.047-.027s-.065-.024-.086-.053a.145.145 0 00-.112-.053c-.04 0-.074-.012-.074-.027s-.024-.027-.053-.027c-.03 0-.053-.012-.053-.026 0-.015-.036-.027-.08-.027-.044 0-.08-.012-.08-.026 0-.015-.035-.027-.08-.027-.043 0-.079-.012-.079-.026 0-.015-.048-.027-.106-.027-.059 0-.107-.012-.107-.027 0-.016-.106-.026-.265-.026-.16 0-.266-.01-.266-.027 0-.014-.048-.026-.106-.026-.059 0-.107.012-.107.026 0 .016-.115.027-.292.027s-.293.01-.293.026c0 .015-.047.027-.106.027-.058 0-.106.012-.106.027 0 .014-.048.026-.107.026-.058 0-.106.012-.106.027 0 .014-.036.026-.08.026-.043 0-.08.012-.08.027 0 .014-.035.026-.079.026s-.08.012-.08.027-.024.027-.053.027c-.03 0-.053.012-.053.026 0 .015-.024.027-.053.027-.03 0-.053.012-.053.026 0 .015-.036.027-.08.027-.044 0-.08.012-.08.026 0 .015-.024.027-.053.027-.03 0-.053.012-.053.027 0 .014-.024.026-.053.026-.03 0-.054.012-.054.027 0 .014-.02.026-.047.026-.026 0-.064.024-.085.053-.021.03-.06.054-.086.054-.026 0-.047.012-.047.026 0 .015-.021.027-.047.027s-.065.024-.086.053c-.021.03-.057.053-.08.053s-.059.024-.08.053c-.02.03-.057.053-.08.053-.022 0-.058.024-.08.054-.02.029-.054.053-.074.053-.02 0-.082.048-.138.106-.056.059-.115.106-.132.106a.61.61 0 00-.16.133.633.633 0 01-.158.133c-.037 0-.64.602-.64.64 0 .015-.083.11-.185.21-.103.102-.187.198-.187.214 0 .017-.047.076-.106.132-.058.056-.106.116-.106.134 0 .017-.036.064-.08.105-.044.041-.08.091-.08.111 0 .02-.024.054-.053.075-.029.021-.053.057-.053.08s-.024.059-.053.08c-.03.021-.053.057-.053.08 0 .022-.024.058-.053.08-.03.02-.054.056-.054.08 0 .022-.023.058-.053.079-.029.02-.053.06-.053.085 0 .026-.012.048-.026.048-.015 0-.027.021-.027.047s-.024.065-.053.086c-.03.02-.053.06-.053.085 0 .026-.012.048-.027.048-.014 0-.026.023-.026.053 0 .029-.012.053-.027.053s-.027.024-.027.053c0 .03-.012.053-.026.053-.015 0-.027.024-.027.053 0 .03-.012.053-.026.053-.015 0-.027.022-.027.048 0 .026-.024.064-.053.085a.145.145 0 00-.053.113c0 .04-.012.073-.027.073-.014 0-.026.024-.026.053 0 .03-.012.054-.027.054s-.027.024-.027.053c0 .03-.012.053-.026.053-.015 0-.027.024-.027.053 0 .03-.012.053-.026.053-.015 0-.027.024-.027.053 0 .03-.012.054-.026.054-.015 0-.027.036-.027.08 0 .043-.012.08-.027.08-.014 0-.026.023-.026.052 0 .03-.012.053-.027.053-.014 0-.026.036-.026.08 0 .044-.012.08-.027.08s-.026.024-.026.053c0 .03-.012.053-.027.053s-.027.036-.027.08c0 .044-.012.08-.026.08-.015 0-.027.035-.027.08 0 .043-.012.08-.026.08-.015 0-.027.047-.027.105 0 .059-.012.107-.027.107-.014 0-.026.036-.026.08 0 .043-.012.08-.027.08-.014 0-.026.047-.026.105 0 .059-.012.107-.027.107-.014 0-.026.06-.026.133 0 .073-.012.133-.027.133s-.027.06-.027.133c0 .073-.012.132-.026.132-.016 0-.027.089-.027.213s-.01.213-.026.213c-.017 0-.027.212-.027.584s.01.585.027.585c.015 0 .026.08.026.186 0 .107.012.186.027.186.014 0 .026.048.026.107 0 .058.012.106.027.106s.027.036.027.08c0 .043.012.08.026.08.015 0 .027.035.027.079s.012.08.026.08c.015 0 .027.036.027.08 0 .043.012.08.026.08.015 0 .027.023.027.052 0 .03.012.054.027.054.014 0 .026.023.026.053 0 .029.012.053.027.053.014 0 .026.024.026.053 0 .03.012.053.027.053s.027.021.027.047.023.065.053.086c.029.021.053.057.053.08s.024.058.053.08c.03.02.053.053.053.072 0 .045.494.539.539.539.019 0 .051.024.072.053.022.03.057.053.08.053s.059.024.08.053c.021.03.057.053.08.053.022 0 .058.024.08.054.02.029.059.053.085.053.026 0 .047.012.047.026 0 .015.024.027.053.027.03 0 .054.012.054.026 0 .015.035.027.08.027.043 0 .079.012.079.027 0 .014.036.026.08.026.044 0 .08.012.08.027 0 .014.035.026.08.026.043 0 .079.012.079.027s.048.026.106.026c.059 0 .107.012.107.027s.06.027.133.027c.073 0 .132.012.132.026 0 .015.08.027.186.027.107 0 .187.011.187.026 0 .017.185.027.505.027.318 0 .504-.01.504-.027 0-.015.098-.026.24-.026.141 0 .239-.011.239-.027 0-.015.07-.026.16-.026.088 0 .159-.012.159-.027s.06-.027.133-.027c.073 0 .133-.011.133-.026s.047-.027.106-.027c.058 0 .106-.012.106-.026 0-.015.06-.027.133-.027.073 0 .133-.012.133-.026 0-.015.048-.027.106-.027.059 0 .107-.012.107-.027 0-.014.036-.026.08-.026.043 0 .08-.012.08-.027 0-.014.047-.026.105-.026.059 0 .107-.012.107-.027 0-.014.036-.026.08-.026.043 0 .08-.012.08-.027s.035-.027.079-.027.08-.012.08-.026c0-.015.035-.027.08-.027.043 0 .08-.012.08-.026 0-.015.035-.027.079-.027s.08-.012.08-.026c0-.015.035-.027.08-.027.043 0 .079-.012.079-.027 0-.014.024-.026.053-.026.03 0 .053-.012.053-.027 0-.014.036-.026.08-.026.044 0 .08-.012.08-.027 0-.014.024-.026.053-.026.03 0 .053-.012.053-.027s.036-.027.08-.027c.044 0 .08-.012.08-.026 0-.015.024-.027.053-.027.029 0 .053-.012.053-.026 0-.015.036-.027.08-.027.043 0 .08-.012.08-.026 0-.015.023-.027.053-.027.029 0 .053-.012.053-.027 0-.014.036-.026.08-.026.043 0 .08-.012.08-.027 0-.014.023-.026.052-.026.03 0 .053-.012.053-.027s.024-.027.054-.027c.029 0 .053-.012.053-.026 0-.015.024-.027.053-.027.03 0 .053-.012.053-.026 0-.015.036-.027.08-.027.044 0 .08-.012.08-.026 0-.015.023-.027.053-.027.029 0 .053-.012.053-.027 0-.014.024-.026.053-.026.03 0 .053-.012.053-.027 0-.014.024-.026.053-.026.03 0 .053-.012.053-.027s.024-.026.054-.026c.029 0 .053-.012.053-.027s.024-.027.053-.027c.03 0 .053-.012.053-.026 0-.015.024-.027.053-.027.03 0 .053-.012.053-.026 0-.015.024-.027.054-.027.029 0 .053-.012.053-.027 0-.014.024-.026.053-.026.03 0 .053-.012.053-.027 0-.014.024-.026.053-.026.03 0 .053-.012.053-.027s.022-.026.048-.026c.026 0 .064-.024.085-.054.021-.029.06-.053.086-.053.026 0 .047-.012.047-.026 0-.015.024-.027.053-.027.03 0 .053-.012.053-.027 0-.014.024-.026.054-.026.029 0 .053-.012.053-.027 0-.014.024-.026.053-.026.03 0 .053-.012.053-.027 0-.014.021-.026.047-.026s.065-.024.086-.054c.021-.029.06-.053.086-.053.026 0 .047-.012.047-.026 0-.015.024-.027.053-.027.03 0 .053-.012.053-.026 0-.015.021-.027.047-.027s.065-.024.086-.053c.021-.03.06-.053.086-.053.026 0 .047-.012.047-.027s.021-.027.047-.027.065-.023.086-.053c.02-.029.06-.053.085-.053.027 0 .048-.012.048-.026 0-.015.021-.027.047-.027s.065-.024.086-.053c.02-.03.06-.053.085-.053.026 0 .047-.012.047-.027 0-.014.022-.026.048-.026.026 0 .064-.024.085-.054.021-.029.057-.053.08-.053s.059-.024.08-.053c.021-.03.057-.053.08-.053.022 0 .058-.024.08-.053.02-.03.059-.053.085-.053.026 0 .047-.012.047-.027s.021-.026.047-.026c.027 0 .065-.024.086-.054.021-.029.057-.053.08-.053s.059-.024.08-.053c.02-.03.057-.053.08-.053.022 0 .058-.024.08-.053.02-.03.056-.053.079-.053s.058-.024.08-.054c.02-.029.056-.053.08-.053.022 0 .058-.024.079-.053.021-.03.055-.053.075-.053.02 0 .07-.036.111-.08.041-.044.091-.08.111-.08.02 0 .054-.023.075-.053.021-.029.055-.053.075-.053.02 0 .07-.036.111-.08.041-.043.091-.08.111-.08.02 0 .054-.023.075-.053.021-.029.055-.053.075-.053.02 0 .07-.035.111-.08.041-.043.089-.08.107-.08.017 0 .065-.035.106-.079.04-.044.089-.08.106-.08.018 0 .066-.035.106-.08.041-.043.089-.08.106-.08s.078-.047.134-.105c.056-.059.116-.107.133-.107s.065-.036.106-.08c.04-.043.089-.08.106-.08.018 0 .066-.035.107-.079.04-.044.088-.08.105-.08s.078-.047.134-.106c.056-.058.116-.106.132-.106a.61.61 0 00.16-.133.615.615 0 01.16-.133c.016 0 .088-.06.159-.133a.617.617 0 01.16-.133c.016 0 .1-.072.185-.16a.851.851 0 01.186-.159c.016 0 .124-.095.24-.212.116-.117.223-.213.239-.213.015 0 .17-.144.346-.319.174-.175.33-.319.344-.319.036 0 1.596-1.56 1.596-1.595 0-.015.12-.147.265-.292.147-.145.266-.277.266-.293 0-.015.084-.111.186-.212.103-.1.186-.197.186-.213 0-.016.06-.088.133-.159a.617.617 0 00.133-.16c0-.016.072-.1.16-.186.087-.086.16-.17.16-.186 0-.017.047-.076.105-.132.059-.057.107-.117.107-.134s.036-.065.08-.106c.043-.04.08-.088.08-.105 0-.018.047-.078.105-.134.059-.056.107-.116.107-.133 0-.018.036-.065.08-.106.043-.041.08-.089.08-.106 0-.018.035-.066.079-.107.044-.04.08-.089.08-.106s.036-.065.08-.106c.043-.041.08-.091.08-.111 0-.02.023-.054.052-.075.03-.021.053-.055.053-.075 0-.02.036-.07.08-.111.044-.041.08-.091.08-.111 0-.02.024-.054.053-.075.03-.021.053-.057.053-.08s.024-.059.053-.08c.03-.021.054-.057.054-.08 0-.022.023-.058.053-.08.029-.02.053-.056.053-.08 0-.022.024-.058.053-.079.03-.02.053-.057.053-.08 0-.022.024-.058.053-.08.03-.02.054-.056.054-.079s.023-.059.053-.08c.029-.02.053-.06.053-.085 0-.026.012-.048.026-.048.015 0 .027-.021.027-.047s.024-.064.053-.086c.03-.02.053-.056.053-.08 0-.022.024-.058.053-.079.03-.021.054-.06.054-.086 0-.026.012-.047.026-.047.015 0 .027-.021.027-.047s.024-.065.053-.086c.03-.02.053-.06.053-.085 0-.026.012-.048.027-.048.014 0 .026-.024.026-.053 0-.03.012-.053.027-.053.014 0 .026-.021.026-.047s.024-.065.054-.086c.029-.021.053-.06.053-.085 0-.027.012-.048.026-.048.015 0 .027-.024.027-.053 0-.03.012-.053.026-.053.015 0 .027-.024.027-.053 0-.03.012-.053.027-.053.014 0 .026-.024.026-.054 0-.029.012-.053.027-.053.014 0 .026-.021.026-.047s.024-.064.053-.086c.03-.02.054-.06.054-.085 0-.026.012-.047.026-.047.015 0 .027-.024.027-.054 0-.029.012-.053.026-.053.015 0 .027-.024.027-.053 0-.03.012-.053.026-.053.015 0 .027-.024.027-.053 0-.03.012-.053.027-.053.014 0 .026-.024.026-.054 0-.029.012-.053.027-.053.014 0 .026-.024.026-.053 0-.03.012-.053.027-.053s.027-.024.027-.053c0-.03.012-.053.026-.053.015 0 .027-.036.027-.08 0-.044.012-.08.026-.08.015 0 .027-.024.027-.053 0-.03.012-.053.026-.053.015 0 .027-.024.027-.053 0-.03.012-.053.027-.053.014 0 .026-.024.026-.054 0-.029.012-.053.027-.053.014 0 .026-.024.026-.053 0-.03.012-.053.027-.053s.026-.036.026-.08c0-.044.012-.08.027-.08s.027-.024.027-.053c0-.029.012-.053.026-.053.015 0 .027-.036.027-.08 0-.043.012-.08.026-.08.015 0 .027-.023.027-.053 0-.029.012-.053.027-.053.014 0 .026-.036.026-.08 0-.043.012-.08.027-.08.014 0 .026-.023.026-.052 0-.03.012-.053.027-.053.014 0 .026-.036.026-.08 0-.044.012-.08.027-.08s.027-.036.027-.08c0-.043.012-.08.026-.08.015 0 .027-.035.027-.08 0-.043.012-.079.026-.079.015 0 .027-.036.027-.08 0-.043.012-.08.026-.08.015 0 .027-.035.027-.079s.012-.08.027-.08c.014 0 .026-.036.026-.08 0-.043.012-.08.027-.08.014 0 .026-.035.026-.079s.012-.08.027-.08.027-.048.027-.106c0-.059.012-.106.026-.106.015 0 .027-.036.027-.08 0-.044.012-.08.026-.08.015 0 .027-.048.027-.106 0-.059.012-.106.026-.106.015 0 .027-.048.027-.107 0-.058.012-.106.027-.106.014 0 .026-.06.026-.133 0-.073.012-.133.027-.133.014 0 .026-.06.026-.133 0-.073.012-.133.027-.133s.026-.06.026-.133c0-.073.012-.132.027-.132s.027-.08.027-.186c0-.107.011-.186.026-.186s.027-.08.027-.186c0-.107.011-.187.026-.187.017 0 .027-.115.027-.292s.01-.292.026-.292c.018 0 .027-.266.027-.745 0-.478-.01-.744-.027-.744-.015 0-.026-.106-.026-.265 0-.16-.01-.266-.027-.266-.015 0-.026-.089-.026-.213s-.011-.212-.027-.212c-.014 0-.026-.06-.026-.133 0-.073-.012-.133-.027-.133s-.027-.071-.027-.16c0-.088-.011-.16-.026-.16s-.027-.047-.027-.106c0-.058-.012-.106-.026-.106-.015 0-.027-.048-.027-.106 0-.059-.012-.106-.026-.106-.015 0-.027-.048-.027-.107 0-.058-.012-.106-.027-.106-.014 0-.026-.036-.026-.08 0-.044-.012-.08-.027-.08-.014 0-.026-.047-.026-.106 0-.058-.012-.106-.027-.106-.014 0-.026-.036-.026-.08 0-.044-.012-.08-.027-.08s-.027-.024-.027-.053c0-.029-.012-.053-.026-.053-.015 0-.027-.036-.027-.08 0-.044-.012-.08-.026-.08-.015 0-.027-.035-.027-.08 0-.043-.012-.079-.026-.079-.015 0-.027-.036-.027-.08 0-.043-.012-.08-.027-.08-.014 0-.026-.023-.026-.053 0-.029-.012-.053-.027-.053-.014 0-.026-.024-.026-.053 0-.03-.012-.053-.027-.053s-.026-.024-.026-.053c0-.03-.012-.053-.027-.053s-.027-.036-.027-.08c0-.044-.012-.08-.026-.08-.015 0-.027-.024-.027-.053 0-.03-.012-.053-.026-.053-.015 0-.027-.024-.027-.053 0-.03-.012-.053-.027-.053-.014 0-.026-.024-.026-.054 0-.029-.012-.053-.027-.053-.014 0-.026-.024-.026-.053 0-.03-.012-.053-.027-.053s-.027-.024-.027-.053c0-.03-.011-.053-.026-.053s-.027-.022-.027-.048c0-.026-.023-.064-.053-.085-.029-.021-.053-.06-.053-.086 0-.026-.012-.047-.027-.047-.014 0-.026-.024-.026-.053 0-.03-.012-.053-.027-.053-.014 0-.026-.024-.026-.054 0-.029-.012-.053-.027-.053-.014 0-.026-.021-.026-.047s-.024-.065-.054-.086c-.029-.02-.053-.057-.053-.08 0-.022-.024-.058-.053-.08-.03-.02-.053-.054-.053-.074 0-.02-.036-.07-.08-.111-.044-.041-.08-.091-.08-.111 0-.02-.023-.054-.053-.075-.029-.021-.053-.055-.053-.075 0-.02-.036-.07-.08-.111-.043-.041-.08-.089-.08-.106s-.06-.089-.132-.16a.634.634 0 01-.133-.158c0-.037-.868-.905-.906-.905a.435.435 0 01-.13-.106c-.057-.059-.117-.107-.134-.107-.016 0-.076-.048-.132-.106-.057-.059-.117-.106-.134-.106s-.065-.036-.106-.08c-.04-.044-.09-.08-.11-.08-.02 0-.055-.024-.076-.053-.02-.03-.06-.053-.085-.053-.026 0-.047-.012-.047-.027 0-.014-.022-.026-.048-.026-.026 0-.064-.024-.085-.053-.021-.03-.06-.054-.086-.054-.026 0-.047-.012-.047-.026 0-.015-.022-.027-.048-.027-.026 0-.064-.024-.085-.053-.021-.03-.06-.053-.086-.053-.026 0-.047-.012-.047-.027 0-.014-.024-.026-.053-.026-.03 0-.053-.012-.053-.027 0-.014-.024-.026-.054-.026-.029 0-.053-.012-.053-.027s-.024-.027-.053-.027c-.03 0-.053-.012-.053-.026 0-.015-.024-.027-.053-.027-.03 0-.053-.012-.053-.026 0-.015-.024-.027-.053-.027-.03 0-.054-.012-.054-.026 0-.015-.024-.027-.053-.027-.029 0-.053-.012-.053-.027 0-.014-.024-.026-.053-.026-.03 0-.053-.012-.053-.027 0-.014-.024-.026-.053-.026-.03 0-.054-.012-.054-.027S27.34.85 27.295.85c-.043 0-.08-.011-.08-.026s-.023-.027-.052-.027c-.03 0-.053-.012-.053-.026 0-.015-.036-.027-.08-.027-.044 0-.08-.012-.08-.026 0-.015-.036-.027-.08-.027-.043 0-.08-.012-.08-.027 0-.014-.035-.026-.079-.026s-.08-.012-.08-.027c0-.014-.024-.026-.053-.026-.03 0-.053-.012-.053-.027 0-.014-.048-.026-.106-.026-.059 0-.107-.012-.107-.027s-.036-.027-.08-.027c-.043 0-.08-.012-.08-.026 0-.015-.047-.027-.105-.027-.059 0-.107-.012-.107-.026 0-.015-.048-.027-.106-.027-.059 0-.106-.012-.106-.026 0-.015-.048-.027-.107-.027-.058 0-.106-.012-.106-.027 0-.014-.048-.026-.106-.026-.059 0-.107-.012-.107-.027s-.07-.026-.16-.026c-.088 0-.159-.012-.159-.027s-.07-.027-.16-.027c-.088 0-.159-.011-.159-.026s-.08-.027-.186-.027-.186-.011-.186-.026c0-.016-.115-.027-.292-.027s-.292-.01-.292-.026c0-.018-.39-.027-1.117-.027-.726 0-1.116.01-1.116.027z" fill="#D91B2A"/></svg>